<svg xmlns="http://www.w3.org/2000/svg" width="150" height="320" viewBox="0 0 15 32">
  <title>Key</title>

  <defs>
    <linearGradient id="gradient" x1="0%" y1="0%" x2="100%" y2="100%">
      <stop offset="0%" />
      <stop offset="50%" />
      <stop offset="100%" />
    </linearGradient>

    <style>
      path {
        fill: url(#gradient);
      }

      linearGradient stop:first-child {
        animation: whiteSilverSilver 3s ease-in-out infinite alternate;
      }

      linearGradient stop:nth-child(2) {
        animation: silverWhiteSilver 3s ease-in-out infinite alternate;
      }

      linearGradient stop:last-child {
        animation: silverSilverWhite 3s ease-in-out infinite alternate;
      }

      @keyframes whiteSilverSilver {
        0% {stop-color: white;}
        50% {stop-color: #bec2cb;}
        100% {stop-color: #bec2cb;}
      }

      @keyframes silverWhiteSilver {
        0% {stop-color: #bec2cb;}
        50% {stop-color: white;}
        100% {stop-color: #bec2cb;}
      }

      @keyframes silverSilverWhite {
        0% {stop-color: #bec2cb;}
        50% {stop-color: #bec2cb;}
        100% {stop-color: white;}
      }
    </style>
  </defs>

  <path d="M7.342 29.070v-1.691h6.254v-2.666h-6.254v-13.185c2.537-0.68 4.375-2.959 4.375-5.667 0-3.235-2.623-5.858-5.858-5.858s-5.858 2.623-5.858 5.858c0 2.708 1.838 4.987 4.334 5.658l0.041 0.009v20.472h10.351v-2.93zM5.858 10.080c-2.333-0.001-4.224-1.892-4.224-4.225s1.892-4.225 4.225-4.225 4.225 1.892 4.225 4.225v0c0 0.001 0 0.002 0 0.004 0 2.334-1.892 4.225-4.225 4.225-0 0-0.001 0-0.001 0h0z"></path>
</svg>
