<svg xmlns="http://www.w3.org/2000/svg" width="350" height="320" viewBox="0 0 35 32">
  <title>Swords</title>

  <defs>
    <linearGradient id="gradient" x1="0%" y1="0%" x2="100%" y2="100%">
      <stop offset="0%" />
      <stop offset="100%" />
    </linearGradient>

    <style>
      path {
        fill-opacity: 0;
        stroke-dasharray: 900;
        stroke: silver;
        stroke-width: 0.25;
        animation: draw 3s linear forwards;
      }

      linearGradient stop:first-child {
        animation: whiteSilver 3s ease-in-out infinite alternate;
      }

      linearGradient stop:last-child {
        animation: silverWhite 3s ease-in-out infinite alternate;
      }

      @keyframes draw {
        0% {
          stroke-dashoffset: 900;
          fill-opacity: 0;
        }
        80% {
          stroke-dashoffset: 0;
          stroke-opacity: 1;
          fill-opacity: 0;
        }
        100% {
          stroke-opacity: 0;
          fill-opacity: 1;
          fill: url(#gradient);
        }
      }

      @keyframes whiteSilver {
        0% {stop-color: white;}
        100% {stop-color: #bec2cb;}
      }

      @keyframes silverWhite {
        0% {stop-color: #bec2cb;}
        100% {stop-color: white;}
      }
    </style>
  </defs>

  <path d="M34.463 3.286c0.333-0.307 0.541-0.746 0.541-1.233 0-0.415-0.151-0.796-0.402-1.088l0.002 0.002-0.314-0.377c-0.31-0.362-0.767-0.59-1.278-0.59-0.438 0-0.838 0.168-1.137 0.443l-1.929 1.778c-0.298 0.275-0.697 0.444-1.136 0.444-0.49 0-0.932-0.211-1.238-0.546l-0.001-0.001-1.431-1.569c-0.308-0.336-0.748-0.546-1.238-0.546-0.926 0-1.677 0.751-1.677 1.677 0 0.437 0.167 0.834 0.44 1.133l-0.001-0.001 2.743 3.003-9.91 8.74-8.41-8.872 2.718-2.649c0.294-0.286 0.476-0.686 0.476-1.128 0-0.87-0.705-1.575-1.575-1.575-0.427 0-0.815 0.17-1.099 0.447l0-0-1.569 1.525c-0.284 0.283-0.675 0.458-1.108 0.458-0.442 0-0.841-0.183-1.126-0.476l-0-0-1.739-1.767c-0.288-0.29-0.687-0.469-1.128-0.469-0.412 0-0.787 0.157-1.070 0.414l0.001-0.001-0.345 0.314c-0.319 0.288-0.519 0.704-0.519 1.166 0 0.433 0.176 0.825 0.459 1.109v0l1.735 1.761c0.283 0.284 0.458 0.675 0.458 1.108 0 0.443-0.184 0.844-0.48 1.129l-0 0-1.431 1.396c-0.295 0.287-0.477 0.687-0.477 1.13 0 0.87 0.705 1.576 1.576 1.576 0.427 0 0.815-0.17 1.099-0.446l-0 0 2.749-2.68 8.278 8.756-13.287 11.727c-0.35 0.309-0.569 0.758-0.569 1.258 0 0.426 0.159 0.814 0.42 1.11l-0.002-0.002 0.132 0.151c0.31 0.348 0.759 0.566 1.259 0.566 0.426 0 0.816-0.159 1.112-0.42l-0.002 0.002 13.384-11.809 11.483 12.142c0.289 0.305 0.698 0.495 1.15 0.495 0.421 0 0.804-0.164 1.088-0.433l-0.001 0.001 0.135-0.126c0.309-0.287 0.501-0.696 0.501-1.15 0-0.421-0.166-0.803-0.436-1.085l0.001 0.001-11.404-12.063 9.863-8.699 2.715 2.969c0.308 0.336 0.748 0.546 1.238 0.546 0.926 0 1.677-0.751 1.677-1.677 0-0.437-0.167-0.834-0.44-1.133l0.001 0.001-1.569-1.713c-0.272-0.297-0.438-0.695-0.438-1.131 0-0.488 0.208-0.927 0.541-1.234l0.001-0.001z"></path>
</svg>
